<?xml version="1.0" standalone="no"?>
<!DOCTYPE svg PUBLIC "-//W3C//DTD SVG 20010904//EN"
 "http://www.w3.org/TR/2001/REC-SVG-20010904/DTD/svg10.dtd">
<svg version="1.0" xmlns="http://www.w3.org/2000/svg"
 width="400.000000pt" height="400.000000pt" viewBox="0 0 400.000000 400.000000"
 preserveAspectRatio="xMidYMid meet">
<metadata>
Created by potrace 1.11, written by Peter Selinger 2001-2013
</metadata>
<g transform="translate(0.000000,400.000000) scale(0.100000,-0.100000)"
fill="#000000" stroke="none">
<path d="M2321 2899 c-34 -10 -115 -61 -126 -79 -3 -5 0 -18 7 -29 11 -18 14
-19 29 -5 28 25 118 29 159 6 52 -28 97 -92 110 -158 13 -62 23 -244 13 -244
-3 0 -29 11 -58 25 -28 14 -72 27 -96 29 -49 4 -150 -19 -160 -36 -16 -25 3
-37 59 -36 31 0 73 -6 93 -15 53 -22 114 -81 139 -134 22 -47 40 -179 24 -172
-5 2 -35 17 -67 33 -46 23 -75 30 -147 34 l-90 5 0 -27 c0 -23 4 -26 33 -26
77 -1 165 -58 215 -138 38 -62 51 -104 57 -180 4 -62 4 -62 -23 -63 -72 -2
-166 -31 -223 -69 -186 -123 -156 -388 56 -493 141 -70 256 -43 604 143 91 49
142 61 185 44 20 -8 21 -33 2 -59 -47 -69 -3 -174 68 -161 64 12 91 51 83 122
-11 99 -101 162 -242 168 -91 5 -196 -21 -365 -89 -217 -87 -279 -96 -358 -56
-113 58 -142 186 -64 290 28 38 122 86 195 100 26 5 170 7 320 5 158 -2 295 1
327 7 302 57 471 219 525 502 19 100 14 288 -10 367 -40 131 -128 246 -233
303 -67 36 -81 40 -179 43 -128 4 -234 -35 -409 -150 l-50 -33 -18 51 c-38
109 -151 182 -286 184 -36 0 -80 -4 -99 -9z m860 -190 c57 -29 126 -104 159
-174 17 -35 30 -70 30 -78 0 -18 -78 -76 -139 -102 -67 -29 -171 -26 -241 7
-105 51 -103 47 -105 197 0 73 2 136 5 140 6 9 94 38 130 43 38 5 120 -11 161
-33z m-347 -526 c-1 -263 -2 -482 -3 -486 0 -4 -25 -7 -53 -5 l-53 3 0 454 0
454 49 33 c27 18 52 31 55 29 3 -1 5 -218 5 -482z m560 142 c9 -103 10 -128 2
-192 l-8 -61 -76 39 c-61 32 -91 41 -146 45 -77 5 -155 -13 -221 -51 -22 -12
-44 -25 -50 -26 -6 -3 -10 48 -10 134 0 130 5 162 20 137 3 -5 32 -22 63 -36
111 -52 256 -36 367 41 27 18 50 33 51 32 2 -1 5 -29 8 -62z m-106 -261 c40
-20 76 -42 78 -49 3 -8 -8 -42 -25 -78 -73 -153 -183 -222 -389 -242 -45 -5
-60 -3 -63 7 -3 7 -4 80 -4 161 l0 149 55 34 c116 71 229 77 348 18z"/>
<path d="M902 2811 c-179 -157 -271 -283 -295 -400 -12 -60 -14 -61 -65 -87
-158 -78 -184 -274 -52 -387 66 -57 167 -82 326 -81 l132 0 -31 -55 c-45 -83
-44 -83 -116 -73 -164 23 -294 -8 -373 -89 -60 -61 -72 -116 -39 -181 68 -134
251 -159 528 -72 48 15 93 30 98 34 6 4 29 14 53 24 36 14 50 14 85 5 23 -7
47 -13 52 -15 6 -1 50 -16 98 -33 l88 -32 94 51 c126 68 258 156 323 215 89
80 170 210 188 299 40 203 -97 380 -341 441 -69 17 -181 23 -280 15 -27 -2
-52 0 -54 4 -2 4 49 97 114 206 64 110 115 207 113 217 -7 36 -36 26 -67 -24
-17 -26 -32 -51 -33 -55 -2 -4 -102 26 -223 67 -121 41 -226 75 -232 75 -7 0
-48 -31 -91 -69z m143 -126 c41 -9 91 -23 112 -31 84 -34 193 -88 191 -94 -2
-3 -25 -45 -52 -93 -36 -64 -55 -87 -70 -88 -12 -1 -34 -3 -51 -4 -16 -2 -84
-7 -150 -11 -142 -7 -191 3 -242 50 -31 28 -37 40 -41 88 -7 86 42 156 129
183 58 18 85 18 174 0z m-420 -417 c29 -46 67 -70 132 -84 59 -12 250 -12 336
1 l47 7 -36 -63 c-19 -35 -39 -68 -44 -73 -15 -15 -309 -17 -372 -2 -114 28
-157 76 -149 168 1 17 48 78 59 78 4 -1 16 -15 27 -32z m925 -63 c169 -23 294
-152 292 -301 -1 -120 -85 -247 -224 -342 l-47 -33 -78 21 c-43 12 -83 22 -90
23 -27 6 -20 15 30 37 64 29 174 95 206 124 13 11 35 39 49 61 65 103 -1 241
-132 276 -59 16 -203 13 -378 -7 -27 -3 -48 -3 -48 0 0 16 74 136 83 136 23 1
162 13 164 14 5 4 124 -2 173 -9z m-56 -328 c78 -52 21 -152 -132 -235 l-74
-40 -127 43 c-70 23 -145 46 -167 49 -70 12 -70 16 -23 98 l43 75 106 7 c122
7 234 17 238 21 11 10 114 -4 136 -18z m-711 -324 c78 -15 214 -51 235 -62 18
-10 -158 -76 -253 -96 -207 -43 -370 36 -270 131 19 18 45 35 57 37 43 9 158
4 231 -10z"/>
</g>
</svg>
